PathFileType	4	(X/Y/Z)	OpenSim_Sub07_EMGBaseline_Accel.trc
DataRate	CameraRate	NumFrames	NumMarkers	Units	OrigDataRate	OrigDataStartFrame	OrigNumFrames
100	100	35	8	m	100	1	6828
Frame#	Time	torso_imu_offset_imu	pelvis_imu_offset_imu	tibia_r_imu_offset_imu	femur_r_imu_offset_imu	tibia_l_imu_offset_imu	femur_l_imu_offset_imu	toes_r_imu_offset_imu	toes_l_imu_offset_imu
				X1	Y1	Z1	X2	Y2	Z2	X3	Y3	Z3	X4	Y4	Z4	X5	Y5	Z5	X6	Y6	Z6	X7	Y7	Z7	X8		Y8	Z8	

1	0	-8.67468700	0.50050000	7.23043200	9.57380700	0.56074400	2.65936700	9.61545900	2.20459600	0.24129600	9.75136800	0.37043700	1.26166800	9.58538500	-1.94715700	0.57963200	9.58039500	0.35340200	-1.78615600	5.06889300	1.18914100	8.55718200	5.27186400	1.38189500	10.90357800
2	0.01000000	-8.69248000	0.52820000	7.21689000	9.57719000	0.55054300	2.68116700	9.59725300	2.22085200	0.24020900	9.75111900	0.37207700	1.26311200	9.59144600	-1.95549800	0.54702200	9.61994100	0.34123200	-1.81336100	5.08980300	1.16184100	8.55374300	5.22813900	1.38013600	10.93718400
3	0.02000000	-8.66329200	0.52106400	7.26465400	9.55491300	0.53507100	2.64921200	9.58910400	2.21080700	0.21949300	9.79646700	0.37994800	1.28065300	9.63911100	-1.93844400	0.51653100	9.62346400	0.32114800	-1.80042400	5.08223100	1.18151800	8.52624000	5.28959700	1.30700100	10.90608300
4	0.03000000	-8.66702200	0.52721900	7.22824400	9.58197800	0.53118900	2.67005200	9.57910200	2.16445900	0.24617700	9.72853100	0.34794400	1.26484900	9.57945600	-1.93911000	0.55980500	9.60209200	0.27409000	-1.85943800	5.09548800	1.17395000	8.49533900	5.25897200	1.35563000	10.92325100
5	0.04000000	-8.68339600	0.54789800	7.24842300	9.56528200	0.50448600	2.71386300	9.59114300	2.21659200	0.27320500	9.75109800	0.35143200	1.27456200	9.57540700	-1.98102000	0.56903300	9.61938900	0.26725200	-1.83108200	5.06885700	1.16988700	8.54309400	5.24490500	1.31160200	10.88556000
6	0.05000000	-8.65427800	0.54146800	7.29615300	9.59534600	0.48061700	2.66857200	9.58290900	2.20693500	0.25226100	9.75907300	0.36785300	1.24693800	9.57819300	-1.94352500	0.61501800	9.62918800	0.22754700	-1.84559200	5.09451800	1.19438700	8.50986300	5.26945300	1.38233900	10.90468800
7	0.06000000	-8.67998500	0.55851900	7.26282500	9.57860800	0.45383600	2.71259300	9.63134400	2.22668600	0.28103500	9.77409600	0.33106200	1.29312100	9.62988000	-1.88493800	0.57477000	9.60921500	0.23241900	-1.83326300	5.08135300	1.16282500	8.51257900	5.26650600	1.33397600	10.89945300
8	0.07000000	-8.70547200	0.57562600	7.22971900	9.57847900	0.45502900	2.71284800	9.60675100	2.26951200	0.21171900	9.79730000	0.31070900	1.31006300	9.60756200	-1.84635900	0.54321500	9.60912900	0.23168600	-1.83380400	5.06013800	1.19043000	8.51614900	5.27704200	1.32976100	10.93217300
9	0.08000000	-8.61696500	0.58012200	7.27809600	9.59490700	0.48403900	2.66953200	9.58657100	2.25001400	0.25824100	9.73402200	0.31749500	1.33849600	9.64137400	-1.90369200	0.56228600	9.60539800	0.25037100	-1.84808000	5.06756800	1.15123800	8.52967200	5.27806700	1.37829800	10.93831400
10	0.09000000	-8.48436000	0.56428700	7.32043600	9.62533600	0.46932600	2.71242400	9.61879200	2.24924400	0.24594100	9.77482700	0.28365700	1.31163900	9.58070400	-1.93633300	0.44996900	9.55446600	0.24759200	-1.87902700	5.08005300	1.18349300	8.52726400	5.26455600	1.35848800	10.90368200
11	0.10000000	-8.54575400	0.61248400	7.31362200	9.61807700	0.49233700	2.67003900	9.60049000	2.26588500	0.24485700	9.78410500	0.25365400	1.29806800	9.62135700	-1.91410800	0.50661400	9.56688800	0.28013100	-1.92039500	5.07221800	1.20329300	8.49989500	5.28763400	1.40463700	10.92024700
12	0.11000000	-8.63257600	0.63305200	7.21333500	9.59269400	0.49709900	2.70455100	9.59030100	2.29272900	0.26445700	9.79739200	0.28758500	1.32121000	9.63284800	-1.93241400	0.49571500	9.55690000	0.31835100	-1.90716900	5.10011500	1.17683400	8.53825600	5.26112000	1.33370300	10.90208700
13	0.12000000	-8.77625800	0.57668400	7.15129500	9.59907400	0.46646500	2.66045600	9.57399800	2.27263100	0.22302500	9.78844300	0.29517100	1.34393800	9.54714600	-1.93465800	0.51702700	9.56665700	0.35106600	-1.90751500	5.09217400	1.19665000	8.51094800	5.25248900	1.40427700	10.93298900
14	0.13000000	-8.76092900	0.59345900	7.22229200	9.57383300	0.47082100	2.69452400	9.56582600	2.26268200	0.20214900	9.77877100	0.32572600	1.36018000	9.60567500	-1.93763400	0.52953100	9.59012700	0.32564700	-1.90697600	5.07866600	1.18472100	8.52791900	5.27011100	1.35969400	10.88435000
15	0.14000000	-8.77716100	0.61631200	7.24248400	9.59032500	0.49908300	2.65112300	9.55381200	2.25322000	0.26926000	9.78604300	0.36596500	1.32592300	9.64102400	-1.90443000	0.56576700	9.58764800	0.32534400	-1.86511600	5.09845500	1.19745300	8.55315700	5.28112300	1.37906800	10.92024300
16	0.15000000	-8.75732000	0.60750300	7.23666900	9.56997100	0.48242200	2.67414800	9.62045600	2.25674500	0.29908900	9.74477700	0.39985000	1.35584700	9.62500300	-1.87283000	0.50280100	9.60880600	0.37170600	-1.80772700	5.05653800	1.21243900	8.53200000	5.23419900	1.32815900	10.94875400
17	0.16000000	-8.67186300	0.62821200	7.21720400	9.60190100	0.45696100	2.68417300	9.57368400	2.27403300	0.22218300	9.78436400	0.41359700	1.31436600	9.64481100	-1.86300500	0.55956500	9.60493000	0.39113300	-1.82268200	5.07684300	1.18522500	8.52893500	5.26736300	1.37593500	10.94377000
18	0.17000000	-8.70414100	0.62776700	7.19751900	9.61339600	0.50632900	2.65218600	9.58170500	2.28467200	0.24254900	9.81579800	0.41086400	1.30163700	9.60934300	-1.89616800	0.52584800	9.62463000	0.38548400	-1.83649400	5.08962900	1.17750000	8.49835900	5.24179100	1.32905400	10.92847200
19	0.18000000	-8.66147100	0.66115500	7.21790300	9.63198200	0.53398000	2.66290900	9.62801100	2.29900800	0.21709500	9.81564400	0.41179100	1.30250200	9.61548800	-1.90398800	0.49425900	9.62316300	0.40513800	-1.89358700	5.06250500	1.19316600	8.56040300	5.24364100	1.40138500	10.93760600
20	0.19000000	-8.68624400	0.61981000	7.18930900	9.57618700	0.55445200	2.65424100	9.60376600	2.31059400	0.24986500	9.78446400	0.39300800	1.32466600	9.62459300	-1.87353700	0.50798700	9.60698200	0.39146500	-1.86669400	5.07544900	1.18526100	8.52976000	5.24033500	1.38327500	10.88135300
21	0.20000000	-8.67312900	0.59152100	7.19740600	9.60475000	0.54008900	2.64222200	9.59558500	2.30060700	0.22971100	9.77479900	0.42399100	1.34047400	9.59745000	-1.87876800	0.54060900	9.58469700	0.39705400	-1.81161900	5.08262600	1.16556900	8.55750300	5.25987300	1.35634200	10.88971900
22	0.21000000	-8.68209800	0.57334600	7.20846900	9.59466800	0.58264300	2.66519800	9.60362200	2.31107000	0.25099800	9.77514500	0.40200200	1.34936500	9.63370700	-1.84300600	0.52181900	9.58703700	0.39707400	-1.85417200	5.04088100	1.18020300	8.53628300	5.24909900	1.37824800	10.91501700
23	0.22000000	-8.69224800	0.56250100	7.18585100	9.57246000	0.56699400	2.63317400	9.58739500	2.29060400	0.21026200	9.79826900	0.38306200	1.36639400	9.62970300	-1.88448000	0.53146100	9.55338800	0.38906100	-1.85660300	5.09471200	1.17733800	8.54141100	5.25723300	1.35558700	10.89108800
24	0.23000000	-8.70246200	0.55178600	7.16312800	9.57084400	0.57777800	2.66637700	9.61369000	2.28469300	0.23220700	9.78351500	0.39730100	1.33037900	9.60737200	-1.84580900	0.50129100	9.60670500	0.39116600	-1.86817900	5.07338300	1.20441500	8.54509800	5.26715600	1.35077600	10.92416500
25	0.24000000	-8.70469700	0.55285300	7.16032900	9.57572200	0.55756700	2.65526400	9.58337900	2.24915100	0.20432300	9.76050300	0.39491800	1.32380100	9.62321800	-1.87737500	0.56636600	9.60427000	0.39119500	-1.82614000	5.07342200	1.16451100	8.51707800	5.26463500	1.32606500	10.92210600
26	0.25000000	-8.69086800	0.57717900	7.19758700	9.57212300	0.56925200	2.63391400	9.58749800	2.21786200	0.21846900	9.77024100	0.34236500	1.31905100	9.60857900	-1.89803300	0.53301700	9.59061600	0.37767900	-1.84079600	5.07253000	1.18420300	8.53164200	5.26546600	1.37396300	10.92844400
27	0.26000000	-8.69303200	0.57804600	7.19490300	9.55683300	0.53205800	2.64525400	9.58149600	2.21306000	0.25228500	9.76930100	0.36598300	1.31401300	9.60751000	-1.90116200	0.58805600	9.59445800	0.35805300	-1.82609500	5.07204100	1.16407400	8.51796000	5.27359200	1.35129100	10.90452900
28	0.27000000	-8.70420800	0.57423500	7.13868900	9.57178500	0.57080800	2.63480400	9.60569800	2.20170200	0.21950100	9.75632000	0.30971500	1.30102400	9.58763500	-1.91111500	0.53297200	9.57700300	0.36380800	-1.85531300	5.05806500	1.17199300	8.54920000	5.24059700	1.37512200	10.91949600
29	0.28000000	-8.72141000	0.60324200	7.12547500	9.58168100	0.52960900	2.61231800	9.61381100	2.21191500	0.23994500	9.78708500	0.32959700	1.28186000	9.64373800	-1.86544600	0.56983500	9.61047900	0.37143800	-1.85385900	5.05025600	1.17167000	8.50785000	5.26110400	1.37243000	10.93073700
30	0.29000000	-8.72236600	0.59572500	7.15665700	9.58159200	0.53031000	2.61250500	9.63604700	2.23708900	0.24726600	9.77357400	0.29653400	1.26102300	9.63972700	-1.90695500	0.57920500	9.64537400	0.35934600	-1.79563400	5.07009300	1.18408800	8.53310700	5.26801300	1.32553800	10.90407300
31	0.30000000	-8.70898300	0.56669300	7.16522900	9.58849200	0.50922700	2.65582000	9.60974300	2.24305800	0.22514700	9.77395700	0.27342400	1.27010100	9.63138800	-1.93528500	0.51260200	9.64777900	0.35930100	-1.83783000	5.09022000	1.17660300	8.54419000	5.26831100	1.34316100	10.96180300
32	0.31000000	-8.72573700	0.59573600	7.15254500	9.58842300	0.50990500	2.65593800	9.61800300	2.18052100	0.25220900	9.79710400	0.25356900	1.28724300	9.61333100	-1.91017400	0.55825100	9.59440900	0.35679400	-1.82659500	5.08976800	1.17663200	8.54445600	5.27648300	1.32067500	10.93785000
33	0.32000000	-8.74191800	0.56518600	7.14459600	9.59179800	0.49968900	2.67780900	9.61389200	2.21186600	0.23716300	9.75084900	0.27046800	1.26461200	9.60390300	-1.94162600	0.54676800	9.58686800	0.32350700	-1.86944200	5.08170700	1.19631700	8.51724900	5.23233100	1.34888200	10.92037300
34	0.33000000	-8.69831700	0.59734700	7.16646200	9.59671200	0.47905900	2.66673100	9.59981000	2.19686400	0.24928400	9.78788600	0.26069600	1.31149100	9.59606000	-1.88288500	0.55086200	9.59449500	0.35618000	-1.82626800	5.05506200	1.17229000	8.55093500	5.28536700	1.34597600	10.92032600
35	0.34000000	-8.67840400	0.59452100	7.12856800	9.56454500	0.50524300	2.65731000	9.62398300	2.18567400	0.21546300	9.75174800	0.22471200	1.28161000	9.60221900	-1.89100700	0.51865100	9.59832700	0.33665500	-1.81157100	5.06798300	1.16441800	8.52032800	5.22945200	1.34792500	10.92187100
